<svg width="13" height="12" viewBox="0 0 13 12" fill="none" xmlns="http://www.w3.org/2000/svg">
<path fill-rule="evenodd" clip-rule="evenodd" d="M12.1777 5.21934L12.1768 5.21842L7.28128 0.323061C7.07261 0.1143 6.79517 -0.000610352 6.50007 -0.000610352C6.20496 -0.000610352 5.92753 0.1143 5.71877 0.323061L0.82579 5.21595L0.820846 5.22099C0.392335 5.65197 0.393068 6.35123 0.822951 6.78111C1.01935 6.9776 1.27866 7.09132 1.556 7.10332C1.56735 7.10442 1.5787 7.10497 1.59015 7.10497H1.78518V10.7076C1.78518 11.4206 2.36531 12.0006 3.07831 12.0006H4.9936H8.00645H9.92174C10.6348 12.0006 11.2149 11.4206 11.2149 10.7076V7.10497H11.3958C11.6908 7.10497 11.9682 6.99006 12.1771 6.7812C12.6074 6.35068 12.6076 5.65014 12.1777 5.21934ZM11.3958 6.40177C11.503 6.40177 11.6039 6.35993 11.6798 6.28402C11.836 6.12772 11.8363 5.87346 11.6806 5.71661L11.6783 5.71441L6.784 0.820243C6.7081 0.744338 6.60729 0.702586 6.50007 0.702586C6.39276 0.702586 6.29195 0.744338 6.21614 0.820243L1.32032 5.71588C1.16375 5.87254 1.16375 6.12736 1.32032 6.28393C1.39393 6.35764 1.49218 6.39921 1.59692 6.40104C1.60251 6.40113 1.60791 6.4014 1.61341 6.40177H2.13677C2.33098 6.40177 2.48837 6.55916 2.48837 6.75337V10.7076C2.48837 11.0328 2.75308 11.2974 3.07831 11.2974H4.642H8.35804H9.92174C10.2471 11.2974 10.5117 11.0328 10.5117 10.7076V6.75337C10.5117 6.55916 10.6691 6.40177 10.8633 6.40177H11.3958Z" fill="white"/>
</svg>
