<svg width="508" height="187" viewBox="0 0 508 187" fill="none" xmlns="http://www.w3.org/2000/svg">
<path d="M124.801 114.4H143.001V152.88H124.801V182H82.6807V152.88H0.000732422V114.4L57.9807 0H102.701L44.7207 114.4H82.6807V75.4H124.801V114.4Z" fill="white"/>
<g filter="url(#filter0_d_43_1634)">
<path d="M265.518 156.256C249.474 156.245 233.763 151.682 220.21 143.099C206.656 134.515 195.816 122.261 188.948 107.762C182.081 93.2629 179.468 77.1128 181.413 61.1879C183.359 45.2629 189.782 30.2167 199.938 17.797C187.859 26.7187 178.175 38.4911 171.75 52.0644C165.325 65.6377 162.359 80.59 163.117 95.588C163.874 110.586 168.331 125.163 176.091 138.02C183.85 150.877 194.671 161.614 207.588 169.273C220.505 176.933 235.117 181.276 250.12 181.917C265.124 182.558 280.052 179.476 293.575 172.945C307.098 166.415 318.795 156.64 327.622 144.491C336.45 132.343 342.133 118.198 344.167 103.319C337.819 118.972 326.942 132.373 312.93 141.804C298.918 151.235 282.408 156.267 265.518 156.256V156.256Z" fill="#F3B623"/>
<path d="M265.518 156.256C282.408 156.267 298.918 151.235 312.93 141.804C326.942 132.373 337.819 118.972 344.167 103.319C344.712 99.2502 344.99 95.1495 344.999 91.0439C345.007 74.1976 340.338 57.6798 331.513 43.33C322.688 28.9802 310.053 17.3617 295.015 9.76848C279.977 2.17523 263.127 -1.09473 246.34 0.322758C229.554 1.74025 213.49 7.78955 199.938 17.797C189.782 30.2167 183.359 45.2629 181.413 61.1878C179.468 77.1128 182.081 93.2629 188.948 107.762C195.816 122.261 206.656 134.515 220.21 143.098C233.763 151.682 249.474 156.245 265.518 156.256V156.256Z" fill="#FCD82B"/>
<path d="M233.861 33.732C233.861 33.732 235.506 37.6044 228.788 39.6762C222.069 41.7479 202.765 39.6762 188.418 62.9107C188.418 62.9107 187.159 65.0212 185.63 64.2467C184.1 63.4722 188.805 53.5976 193.278 47.9244C204.546 33.7707 230.666 25.8129 233.861 33.732Z" fill="#604822"/>
<path d="M274.038 33.732C274.038 33.732 272.392 37.6044 279.111 39.6762C285.829 41.7479 305.133 39.6762 319.5 62.9107C319.5 62.9107 320.739 65.0212 322.288 64.2467C323.837 63.4722 319.093 53.5976 314.543 47.9244C303.371 33.7707 277.232 25.8129 274.038 33.732Z" fill="#604822"/>
<path d="M279.4 137.997C279.217 131.368 276.455 125.073 271.702 120.449C266.949 115.825 260.58 113.238 253.948 113.238C247.317 113.238 240.948 115.825 236.195 120.449C231.441 125.073 228.68 131.368 228.497 137.997C228.497 152.054 239.901 153.487 253.939 153.487C267.976 153.487 279.4 152.054 279.4 137.997Z" fill="#604822"/>
<path d="M309.933 94.3548L298.316 82.7376L309.933 71.1203C310.293 70.7605 310.578 70.3334 310.773 69.8633C310.968 69.3932 311.068 68.8894 311.068 68.3806C311.068 67.8717 310.968 67.3679 310.773 66.8978C310.578 66.4277 310.293 66.0006 309.933 65.6408C309.573 65.281 309.146 64.9956 308.676 64.8009C308.206 64.6062 307.702 64.506 307.193 64.506C306.685 64.506 306.181 64.6062 305.711 64.8009C305.241 64.9956 304.813 65.281 304.454 65.6408L292.836 77.2581L281.219 65.6408C280.492 64.9142 279.507 64.506 278.479 64.506C277.452 64.506 276.466 64.9142 275.74 65.6408C275.013 66.3674 274.605 67.353 274.605 68.3806C274.605 69.4082 275.013 70.3937 275.74 71.1203L287.357 82.7376L275.74 94.3548C275.013 95.0815 274.605 96.067 274.605 97.0946C274.605 98.1222 275.013 99.1077 275.74 99.8343C276.466 100.561 277.452 100.969 278.479 100.969C279.507 100.969 280.492 100.561 281.219 99.8343L292.836 88.2171L304.454 99.8343C305.176 100.562 306.158 100.972 307.184 100.977C307.953 100.981 308.706 100.756 309.347 100.331C309.988 99.9061 310.488 99.2996 310.783 98.5893C311.078 97.8789 311.154 97.0968 311.003 96.3426C310.852 95.5885 310.479 94.8965 309.933 94.3548Z" fill="#604822"/>
<path d="M220.519 82.757L232.137 71.1397C232.863 70.4131 233.272 69.4276 233.272 68.4C233.272 67.3724 232.863 66.3869 232.137 65.6602C231.41 64.9336 230.425 64.5254 229.397 64.5254C228.369 64.5254 227.384 64.9336 226.657 65.6602L215.04 77.2775L203.423 65.6602C203.063 65.3004 202.636 65.015 202.166 64.8203C201.696 64.6256 201.192 64.5254 200.683 64.5254C200.174 64.5254 199.67 64.6256 199.2 64.8203C198.73 65.015 198.303 65.3004 197.943 65.6602C197.583 66.02 197.298 66.4471 197.103 66.9172C196.909 67.3873 196.808 67.8912 196.808 68.4C196.808 68.9088 196.909 69.4126 197.103 69.8827C197.298 70.3528 197.583 70.7799 197.943 71.1397L209.56 82.757L197.943 94.3743C197.583 94.734 197.298 95.1612 197.103 95.6313C196.909 96.1014 196.808 96.6052 196.808 97.114C196.808 97.6228 196.909 98.1266 197.103 98.5967C197.298 99.0668 197.583 99.494 197.943 99.8537C198.303 100.214 198.73 100.499 199.2 100.694C199.67 100.888 200.174 100.989 200.683 100.989C201.192 100.989 201.696 100.888 202.166 100.694C202.636 100.499 203.063 100.214 203.423 99.8537L215.04 88.2365L226.657 99.8537C227.017 100.216 227.446 100.504 227.918 100.7C228.39 100.896 228.896 100.997 229.407 100.996C230.174 100.997 230.925 100.769 231.563 100.343C232.2 99.9159 232.697 99.3093 232.99 98.5997C233.282 97.8901 233.357 97.1096 233.206 96.3573C233.054 95.605 232.682 94.9147 232.137 94.3743L220.519 82.757Z" fill="#604822"/>
</g>
<path d="M489.799 114.4H507.999V152.88H489.799V182H447.679V152.88H364.999V114.4L422.979 0H467.699L409.719 114.4H447.679V75.4H489.799V114.4Z" fill="white"/>
<defs>
<filter id="filter0_d_43_1634" x="163.001" y="0" width="186.999" height="187" filterUnits="userSpaceOnUse" color-interpolation-filters="sRGB">
<feFlood flood-opacity="0" result="BackgroundImageFix"/>
<feColorMatrix in="SourceAlpha" type="matrix" values="0 0 0 0 0 0 0 0 0 0 0 0 0 0 0 0 0 0 127 0" result="hardAlpha"/>
<feOffset dx="5" dy="5"/>
<feColorMatrix type="matrix" values="0 0 0 0 0 0 0 0 0 0 0 0 0 0 0 0 0 0 0.25 0"/>
<feBlend mode="normal" in2="BackgroundImageFix" result="effect1_dropShadow_43_1634"/>
<feBlend mode="normal" in="SourceGraphic" in2="effect1_dropShadow_43_1634" result="shape"/>
</filter>
</defs>
</svg>
