<svg width="16" height="17" viewBox="0 0 16 17" fill="none" xmlns="http://www.w3.org/2000/svg">
<path fill-rule="evenodd" clip-rule="evenodd" d="M5.95544 0.517616C1.48203 0.80363 -1.31938 5.61976 0.629096 9.67447C2.33194 13.218 6.96754 14.4172 10.0869 12.1212L10.3119 11.9555L12.5007 14.1467C13.785 15.4324 14.75 16.3693 14.8359 16.414C15.4985 16.7589 16.2589 15.9986 15.914 15.3361C15.8693 15.2501 14.9323 14.2853 13.6464 13.0011L11.455 10.8126L11.6176 10.5917C14.4784 6.70598 11.7654 0.814087 6.98628 0.53392C6.79042 0.522451 6.57114 0.508134 6.49898 0.502137C6.42682 0.496177 6.18223 0.503111 5.95544 0.517616ZM7.22994 2.18644C10.6171 2.77375 12.2842 6.68822 10.3714 9.56278C8.36548 12.5772 3.81144 12.3168 2.14979 9.09259C0.346345 5.59322 3.34752 1.51325 7.22994 2.18644Z" fill="white"/>
</svg>
