<svg width="20" height="20" viewBox="0 0 20 20" fill="none" xmlns="http://www.w3.org/2000/svg">
<path d="M0.6 18.6482C0.6 18.8691 0.779086 19.0482 1 19.0482H4.6C4.82091 19.0482 5 18.8691 5 18.6482C5 18.4273 4.82091 18.2482 4.6 18.2482H1.4L1.4 15.0482C1.4 14.8273 1.22091 14.6482 1 14.6482C0.779086 14.6482 0.6 14.8273 0.6 15.0482L0.6 18.6482ZM19.4 0.648193C19.4 0.42728 19.2209 0.248194 19 0.248194H15.4C15.1791 0.248194 15 0.42728 15 0.648193C15 0.869108 15.1791 1.04819 15.4 1.04819H18.6V4.24819C18.6 4.46911 18.7791 4.64819 19 4.64819C19.2209 4.64819 19.4 4.46911 19.4 4.24819V0.648193ZM1.28284 18.931L19.2828 0.931036L18.7172 0.365351L0.717157 18.3654L1.28284 18.931Z" fill="#4BA2FC"/>
</svg>
