<svg width="18" height="19" viewBox="0 0 18 19" fill="none" xmlns="http://www.w3.org/2000/svg">
<path fill-rule="evenodd" clip-rule="evenodd" d="M17.5166 8.47726L17.5152 8.47589L10.1719 1.13285C9.85891 0.819704 9.44276 0.647339 9.0001 0.647339C8.55745 0.647339 8.1413 0.819704 7.82816 1.13285L0.488685 8.47218L0.481268 8.47973C-0.161497 9.12621 -0.160398 10.1751 0.484427 10.8199C0.779028 11.1147 1.16798 11.2852 1.58399 11.3032C1.60103 11.3049 1.61806 11.3057 1.63522 11.3057H1.92776V16.7096C1.92776 17.7791 2.79797 18.6492 3.86746 18.6492H6.7404H11.2597H14.1326C15.2022 18.6492 16.0723 17.7791 16.0723 16.7096V11.3057H16.3437C16.7862 11.3057 17.2024 11.1333 17.5156 10.8201C18.1612 10.1743 18.1614 9.12346 17.5166 8.47726ZM16.3437 10.2509C16.5045 10.2509 16.6559 10.1881 16.7697 10.0743C17.004 9.83984 17.0045 9.45844 16.7708 9.22317L16.7674 9.21988L9.426 1.87862C9.31215 1.76476 9.16093 1.70213 9.0001 1.70213C8.83914 1.70213 8.68792 1.76476 8.5742 1.87862L1.23047 9.22207C0.995618 9.45707 0.995618 9.83929 1.23047 10.0741C1.3409 10.1847 1.48827 10.2471 1.64539 10.2498C1.65377 10.2499 1.66187 10.2504 1.67011 10.2509H2.45516C2.74647 10.2509 2.98256 10.487 2.98256 10.7783V16.7096C2.98256 17.1974 3.37962 17.5944 3.86746 17.5944H6.213H11.7871H14.1326C14.6206 17.5944 15.0175 17.1974 15.0175 16.7096V10.7783C15.0175 10.487 15.2536 10.2509 15.5449 10.2509H16.3437Z" fill="#4BA2FC"/>
</svg>
