<svg width="18" height="16" viewBox="0 0 18 16" fill="none" xmlns="http://www.w3.org/2000/svg">
<path d="M16.3142 3.74819H16.2V3.03365C16.2 2.10437 15.4436 1.34819 14.5142 1.34819H8.17092L8.03676 1.07981C7.749 0.505013 7.17126 0.148193 6.52908 0.148193H1.68576C0.75642 0.148193 0 0.904373 0 1.83365V13.4627C0 14.392 0.75642 15.1482 1.68576 15.1482H16.3143C17.2436 15.1482 18 14.392 18 13.4627V5.43365C18 4.50437 17.2436 3.74819 16.3142 3.74819ZM14.5142 2.54819C14.782 2.54819 15 2.76587 15 3.03365V3.74819H9.67092C9.48576 3.74819 9.31938 3.64535 9.23676 3.47981L8.77092 2.54819H14.5142ZM16.8 13.4627C16.8 13.7305 16.582 13.9482 16.3142 13.9482H1.68576C1.41798 13.9482 1.2 13.7305 1.2 13.4627V1.83365C1.2 1.56587 1.41798 1.34819 1.68576 1.34819H6.52914C6.7143 1.34819 6.88068 1.45103 6.9633 1.61657L8.1633 4.01657C8.451 4.59137 9.02874 4.94819 9.67092 4.94819H16.3143C16.582 4.94819 16.8 5.16587 16.8 5.43365V13.4627Z" fill="#4BA2FC"/>
</svg>
