<svg width="14" height="11" viewBox="0 0 14 11" fill="none" xmlns="http://www.w3.org/2000/svg">
<path d="M2.91211 10.4494C2.91211 10.5923 3.0265 10.7093 3.1721 10.7093H11.1642C11.3072 10.7093 11.4241 10.5923 11.4241 10.4494V9.49805H2.91211V10.4494Z" fill="#4BA2FC"/>
<path d="M13.5562 2.11674C13.46 2.05176 13.3352 2.05692 13.2442 2.12712L9.80716 4.85962L7.39448 0.416403C7.30606 0.247408 7.03048 0.25006 6.93949 0.416403L4.52678 4.85962L1.08974 2.12712C0.998746 2.05434 0.873952 2.05176 0.780357 2.11674C0.684165 2.18175 0.645158 2.30135 0.678971 2.41052L2.81428 8.97811H11.5222L13.655 2.41052C13.6888 2.30135 13.6498 2.18175 13.5562 2.11674Z" fill="#4BA2FC"/>
</svg>
