<svg width="21" height="16" viewBox="0 0 21 16" fill="none" xmlns="http://www.w3.org/2000/svg">
<path d="M5.68787 15.2288C5.32693 15.2288 5.03284 15.142 4.80558 14.9682C4.59169 14.7944 4.4179 14.5203 4.28422 14.146L0.0933197 2.2952C-0.0537295 1.86743 -0.0269933 1.50649 0.173528 1.21239C0.387418 0.91829 0.741673 0.77124 1.23629 0.77124C1.59723 0.77124 1.87796 0.858133 2.07848 1.03192C2.27901 1.19234 2.43942 1.45301 2.55974 1.81395L6.16913 12.5218H5.36704L9.13684 1.834C9.27053 1.47307 9.43763 1.2057 9.63815 1.03192C9.83867 0.858133 10.0993 0.77124 10.4202 0.77124C10.741 0.77124 10.995 0.858133 11.1822 1.03192C11.3693 1.2057 11.5297 1.47975 11.6634 1.85406L15.3129 12.5218H14.6111L18.2806 1.81395C18.4009 1.46638 18.5614 1.2057 18.7619 1.03192C18.9624 0.858133 19.2365 0.77124 19.584 0.77124C20.0118 0.77124 20.326 0.91829 20.5265 1.21239C20.727 1.50649 20.7537 1.86743 20.6067 2.2952L16.3757 14.1661C16.242 14.527 16.0682 14.7944 15.8543 14.9682C15.6404 15.142 15.353 15.2288 14.9921 15.2288C14.6311 15.2288 14.3437 15.142 14.1298 14.9682C13.9159 14.7944 13.7422 14.5203 13.6085 14.146L10.1194 4.20016H10.5806L7.05142 14.1661C6.91774 14.527 6.74395 14.7944 6.53006 14.9682C6.32954 15.142 6.04881 15.2288 5.68787 15.2288Z" fill="#4BA2FC"/>
</svg>
