<svg width="23" height="21" viewBox="0 0 23 21" fill="none" xmlns="http://www.w3.org/2000/svg">
<path fill-rule="evenodd" clip-rule="evenodd" d="M8.23658 0.0231212C2.08565 0.398514 -1.7663 6.71969 0.912858 12.0415C3.25426 16.6924 9.62822 18.2663 13.9173 15.2528L14.2267 15.0354L17.2363 17.9113C19.0023 19.5988 20.3291 20.8285 20.4472 20.8872C21.3583 21.3397 22.4038 20.3419 21.9296 19.4723C21.8681 19.3596 20.5797 18.0932 18.8116 16.4077L15.7984 13.5353L16.0221 13.2453C19.9557 8.14535 16.2253 0.412239 9.65399 0.0445203C9.38468 0.0294672 9.08316 0.0106754 8.98394 0.00280452C8.88473 -0.00501719 8.54841 0.00408345 8.23658 0.0231212ZM9.98902 2.21345C14.6464 2.9843 16.9386 8.12204 14.3085 11.8949C11.5504 15.8514 5.28858 15.5095 3.00382 11.2778C0.524075 6.68486 4.65069 1.32989 9.98902 2.21345Z" fill="#8796B1"/>
</svg>
