<svg width="8" height="14" viewBox="0 0 8 14" fill="none" xmlns="http://www.w3.org/2000/svg">
<path d="M1.53033 0.46967C1.23744 0.176777 0.762563 0.176777 0.46967 0.46967C0.176777 0.762563 0.176777 1.23744 0.46967 1.53033L1.53033 0.46967ZM7 7L7.53033 7.53033C7.82322 7.23744 7.82322 6.76256 7.53033 6.46967L7 7ZM0.46967 12.4697C0.176777 12.7626 0.176777 13.2374 0.46967 13.5303C0.762563 13.8232 1.23744 13.8232 1.53033 13.5303L0.46967 12.4697ZM0.46967 1.53033L6.46967 7.53033L7.53033 6.46967L1.53033 0.46967L0.46967 1.53033ZM6.46967 6.46967L0.46967 12.4697L1.53033 13.5303L7.53033 7.53033L6.46967 6.46967Z" fill="white"/>
</svg>
