<?xml version="1.0" encoding="utf-8"?>
<svg xmlns="http://www.w3.org/2000/svg" xmlns:xlink="http://www.w3.org/1999/xlink">
    <symbol id="headerMobileMenuNavArrowRight" viewBox="0 0 7 12" xmlns="http://www.w3.org/2000/svg">
        <path fill-rule="evenodd" clip-rule="evenodd" d="M1.53033 1.11786C1.23744 0.82497 0.762563 0.82497 0.46967 1.11786C0.176777 1.41076 0.176777 1.88563 0.46967 2.17852L1.53033 1.11786ZM6 6.64819L6.53033 7.17852C6.82322 6.88563 6.82322 6.41076 6.53033 6.11786L6 6.64819ZM0.46967 11.1179C0.176777 11.4108 0.176777 11.8856 0.46967 12.1785C0.762563 12.4714 1.23744 12.4714 1.53033 12.1785L0.46967 11.1179ZM0.46967 2.17852L5.46967 7.17852L6.53033 6.11786L1.53033 1.11786L0.46967 2.17852ZM5.46967 6.11786L0.46967 11.1179L1.53033 12.1785L6.53033 7.17852L5.46967 6.11786Z" fill="#D6D6D6"/>
    </symbol>
</svg>