<svg width="15" height="14" viewBox="0 0 15 14" fill="none" xmlns="http://www.w3.org/2000/svg">
<path d="M14.5702 6.82636C14.3315 6.82636 14.1405 7.01736 14.1405 7.25612V11.1653C14.1405 12.2285 13.2746 13.0912 12.2146 13.0912H2.78544C1.7222 13.0912 0.859508 12.2253 0.859508 11.1653V7.19245C0.859508 6.9537 0.668506 6.7627 0.429754 6.7627C0.191002 6.7627 0 6.9537 0 7.19245V11.1653C0 12.7028 1.25106 13.9507 2.78544 13.9507H12.2146C13.7521 13.9507 15 12.6997 15 11.1653V7.25612C15 7.02055 14.809 6.82636 14.5702 6.82636Z" fill="white"/>
<path d="M7.19796 10.5382C7.28073 10.621 7.39215 10.6656 7.50038 10.6656C7.60861 10.6656 7.72003 10.6242 7.8028 10.5382L10.5341 7.80693C10.7028 7.63821 10.7028 7.36762 10.5341 7.1989C10.3654 7.03019 10.0948 7.03019 9.9261 7.1989L7.93013 9.19805V0.478826C7.93013 0.240074 7.73913 0.0490723 7.50038 0.0490723C7.26163 0.0490723 7.07063 0.240074 7.07063 0.478826V9.19805L5.07147 7.1989C4.90276 7.03019 4.63217 7.03019 4.46345 7.1989C4.29473 7.36762 4.29473 7.63821 4.46345 7.80693L7.19796 10.5382Z" fill="white"/>
</svg>
