<svg width="19" height="18" viewBox="0 0 19 18" fill="none" xmlns="http://www.w3.org/2000/svg">
<path d="M19.0003 9.05912C19.0003 11.2925 17.1833 13.1095 14.9499 13.1095H12.666C12.3515 13.1095 12.0966 12.8546 12.0966 12.5401C12.0966 12.2257 12.3515 11.9708 12.666 11.9708H14.9499C16.5554 11.9708 17.8615 10.6646 17.8615 9.05912C17.8615 7.45363 16.5554 6.14748 14.9499 6.14748H14.1403C13.8259 6.14748 13.571 5.89258 13.571 5.57811C13.571 3.54857 11.9198 1.89742 9.89027 1.89742C7.8607 1.89742 6.20955 3.54853 6.20955 5.57811C6.20955 5.89258 5.95465 6.14748 5.64017 6.14748H4.83063C3.22517 6.14748 1.91902 7.45363 1.91902 9.05912C1.91902 10.6646 3.22517 11.9708 4.83063 11.9708H7.11457C7.42904 11.9708 7.68395 12.2257 7.68395 12.5401C7.68395 12.8546 7.42904 13.1095 7.11457 13.1095H4.83063C2.59726 13.1095 0.780273 11.2925 0.780273 9.05912C0.780273 6.82571 2.59726 5.00873 4.83063 5.00873H5.10421C5.38669 2.61853 7.42534 0.758667 9.89027 0.758667C12.3552 0.758667 14.3938 2.61853 14.6763 5.00873H14.9498C17.1833 5.00873 19.0003 6.82571 19.0003 9.05912ZM11.3092 14.4478L10.4596 15.2974V10.2621C10.4596 9.94763 10.2047 9.69273 9.89027 9.69273C9.5758 9.69273 9.3209 9.94763 9.3209 10.2621V15.2974L8.47128 14.4478C8.24894 14.2255 7.88842 14.2255 7.66608 14.4478C7.4437 14.6702 7.4437 15.0307 7.66608 15.253L9.48765 17.0746C9.59882 17.1858 9.74455 17.2414 9.89024 17.2414C10.0359 17.2414 10.1817 17.1858 10.2928 17.0746L12.1144 15.253C12.3368 15.0307 12.3368 14.6702 12.1144 14.4478C11.8921 14.2255 11.5316 14.2255 11.3092 14.4478Z" fill="white"/>
</svg>
