<svg width="15" height="14" viewBox="0 0 15 14" fill="none" xmlns="http://www.w3.org/2000/svg">
<path d="M7.5 13.1785C7.14069 13.1788 6.78886 13.0759 6.48638 12.8819C5.62826 12.3303 3.97792 11.1983 2.58192 9.81602C0.868764 8.11831 0 6.51945 0 5.0627C0 4.05046 0.299314 3.123 0.865675 2.3809C1.40275 1.67526 2.16142 1.17064 3.01981 0.948088C3.8782 0.725538 4.78648 0.797981 5.59874 1.15378C6.32574 1.46751 6.97414 1.99646 7.5 2.6984C8.02586 1.99474 8.67426 1.46579 9.40126 1.15378C10.2135 0.797981 11.1218 0.725538 11.9802 0.948088C12.8386 1.17064 13.5973 1.67526 14.1343 2.3809C14.7007 3.123 15 4.05046 15 5.0627C15 6.51945 14.1312 8.11762 12.4181 9.81465C11.0221 11.1969 9.37243 12.3289 8.51362 12.8806C8.21129 13.075 7.85945 13.1784 7.5 13.1785ZM4.00435 1.6817C3.73286 1.68145 3.46254 1.71723 3.20046 1.7881C2.54267 1.96869 1.96215 2.35981 1.54771 2.90161C1.09668 3.49268 0.858124 4.24028 0.858124 5.06408C0.858124 6.2833 1.64108 7.67689 3.1857 9.20641C4.52437 10.5334 6.11945 11.6263 6.95011 12.1584C7.11413 12.2631 7.30469 12.3188 7.49931 12.3188C7.69394 12.3188 7.8845 12.2631 8.04851 12.1584C8.87918 11.6249 10.4729 10.532 11.8129 9.20641C13.3576 7.67689 14.1405 6.2833 14.1405 5.06408C14.1405 4.24028 13.9019 3.49405 13.4509 2.90161C13.0365 2.35981 12.456 1.96869 11.7982 1.7881C10.6253 1.46957 8.97735 1.80252 7.86865 3.69245C7.83086 3.75704 7.77682 3.81061 7.7119 3.84783C7.64699 3.88506 7.57346 3.90465 7.49863 3.90465C7.4238 3.90465 7.35027 3.88506 7.28535 3.84783C7.22044 3.81061 7.1664 3.75704 7.1286 3.69245C6.25744 2.20481 5.05057 1.6817 4.00435 1.6817Z" fill="white"/>
</svg>
