<svg width="16" height="15" viewBox="0 0 16 15" fill="none" xmlns="http://www.w3.org/2000/svg">
<path d="M15.0702 7.32648C14.8315 7.32648 14.6405 7.51749 14.6405 7.75624V11.6654C14.6405 12.7286 13.7746 13.5913 12.7146 13.5913H3.28544C2.2222 13.5913 1.35951 12.7255 1.35951 11.6654V7.69257C1.35951 7.45382 1.16851 7.26282 0.929754 7.26282C0.691002 7.26282 0.5 7.45382 0.5 7.69257V11.6654C0.5 13.203 1.75106 14.4508 3.28544 14.4508H12.7146C14.2521 14.4508 15.5 13.1998 15.5 11.6654V7.75624C15.5 7.52067 15.309 7.32648 15.0702 7.32648Z" fill="white"/>
<path d="M7.69747 11.0382C7.78024 11.121 7.89166 11.1656 7.99989 11.1656C8.10813 11.1656 8.21954 11.1242 8.30231 11.0382L11.0336 8.30693C11.2024 8.13821 11.2024 7.86762 11.0336 7.6989C10.8649 7.53019 10.5943 7.53019 10.4256 7.6989L8.42965 9.69805V0.978826C8.42965 0.740074 8.23864 0.549072 7.99989 0.549072C7.76114 0.549072 7.57014 0.740074 7.57014 0.978826V9.69805L5.57099 7.6989C5.40227 7.53019 5.13168 7.53019 4.96296 7.6989C4.79425 7.86762 4.79425 8.13821 4.96296 8.30693L7.69747 11.0382Z" fill="white"/>
</svg>
