<svg width="14" height="14" viewBox="0 0 14 14" fill="none" xmlns="http://www.w3.org/2000/svg">
<path d="M12.3057 7.33618V10.8362C12.3057 11.9408 11.4102 12.8362 10.3057 12.8362H3.30566C2.20109 12.8362 1.30566 11.9408 1.30566 10.8362V3.83618C1.30566 2.73161 2.20109 1.83618 3.30566 1.83618H6.80566" stroke="#424242" stroke-linecap="round"/>
<path d="M6.84078 6.81027C6.64552 7.00553 6.64552 7.32211 6.84078 7.51737C7.03604 7.71263 7.35263 7.71263 7.54789 7.51737L6.84078 6.81027ZM13.6943 1.16382C13.6943 0.887676 13.4705 0.663818 13.1943 0.663818L8.69434 0.663818C8.41819 0.663818 8.19434 0.887676 8.19434 1.16382C8.19434 1.43996 8.41819 1.66382 8.69434 1.66382L12.6943 1.66382V5.66382C12.6943 5.93996 12.9182 6.16382 13.1943 6.16382C13.4705 6.16382 13.6943 5.93996 13.6943 5.66382V1.16382ZM7.54789 7.51737L13.5479 1.51737L12.8408 0.810265L6.84078 6.81027L7.54789 7.51737Z" fill="#424242"/>
</svg>
