<svg width="15" height="15" viewBox="0 0 15 15" fill="none" xmlns="http://www.w3.org/2000/svg">
<path d="M7.49991 10.2072C7.32936 10.2072 7.16749 10.1318 7.05788 10.0011L3.98108 6.33257C3.77635 6.08842 3.80826 5.72457 4.0524 5.51979C4.29651 5.31506 4.66041 5.34697 4.86518 5.59112L7.49915 8.73166L13.9803 0.976499C14.1846 0.732065 14.5485 0.699432 14.793 0.903771C15.0374 1.10811 15.07 1.47193 14.8657 1.7164L7.94262 10.0003C7.83312 10.1313 7.67122 10.2071 7.50045 10.2072C7.50023 10.2072 7.50009 10.2072 7.49991 10.2072Z" fill="#767676"/>
<path d="M7.49998 15C3.3645 15 0 11.6355 0 7.49998C0 3.3645 3.3645 0 7.49998 0C9.06341 0 10.5623 0.477187 11.8344 1.37996C12.0943 1.56436 12.1554 1.9245 11.9711 2.18433C11.7867 2.44417 11.4265 2.50536 11.1666 2.32096C10.0907 1.55744 8.82279 1.15384 7.49998 1.15384C4.0007 1.15384 1.15384 4.0007 1.15384 7.49998C1.15384 10.9993 4.0007 13.8461 7.49998 13.8461C10.9993 13.8461 13.8461 10.9993 13.8461 7.49998C13.8461 6.8327 13.7431 6.17584 13.5399 5.54761C13.4418 5.24444 13.6081 4.9192 13.9113 4.82112C14.2146 4.72315 14.5397 4.88938 14.6377 5.19248C14.8781 5.93563 15 6.71198 15 7.49998C15 11.6355 11.6355 15 7.49998 15Z" fill="#767676"/>
</svg>
