<svg width="15" height="10" viewBox="0 0 15 10" fill="none" xmlns="http://www.w3.org/2000/svg">
<path d="M7.48657 7.7195C7.48629 7.7195 7.48629 7.7195 7.48657 7.7195C7.32101 7.7195 7.15518 7.70394 6.99296 7.67339C5.60882 7.41256 4.62522 6.06008 4.8005 4.65899C4.97438 3.27068 6.24436 2.19209 7.67156 2.28486C9.07682 2.37236 10.2201 3.5904 10.2201 4.99982C10.2201 5.22593 10.1921 5.4512 10.1371 5.66925C9.83681 6.85757 8.72182 7.7195 7.48657 7.7195V7.7195ZM7.50601 2.83541C6.43075 2.83541 5.48465 3.66679 5.35188 4.72788C5.21243 5.84342 5.99464 6.91979 7.09602 7.12756C7.22435 7.15173 7.35573 7.16395 7.48629 7.16395C8.47127 7.16395 9.35959 6.47813 9.59848 5.53342C9.64236 5.35981 9.66459 5.18037 9.66459 5.0001C9.66459 3.87845 8.75516 2.9093 7.63684 2.83958C7.59323 2.8368 7.54962 2.83541 7.50601 2.83541V2.83541Z" fill="#767676"/>
<path d="M7.49111 9.38697C7.07806 9.38697 6.66335 9.35752 6.25002 9.29697C3.68423 8.92197 1.36232 7.36894 0.0390069 5.14203C-0.0393252 5.01009 0.00400742 4.83982 0.13595 4.76148C0.267614 4.6826 0.43789 4.72621 0.516777 4.85843C1.75509 6.94256 3.92867 8.39643 6.3303 8.74753C8.87053 9.11725 11.4666 8.24921 13.2744 6.42229C13.7393 5.9523 14.1463 5.4262 14.4835 4.85843C14.5618 4.72648 14.7324 4.68287 14.8641 4.76148C14.996 4.83954 15.0393 5.01037 14.961 5.14203C14.6007 5.74869 14.1663 6.31063 13.6696 6.81284C12.0316 8.46754 9.78913 9.38697 7.49111 9.38697V9.38697Z" fill="#767676"/>
<path d="M0.277614 5.27786C0.229282 5.27786 0.180394 5.26536 0.13595 5.23869C0.00400742 5.16036 -0.0393252 4.98981 0.0390069 4.85814C0.399835 4.25093 0.834272 3.689 1.33065 3.18734C3.26229 1.23515 6.0353 0.306271 8.7497 0.703209C11.3155 1.0782 13.6374 2.63123 14.9604 4.85814C15.0388 4.99009 14.9954 5.16036 14.8635 5.23869C14.7316 5.3173 14.5613 5.27369 14.4829 5.14175C13.2444 3.05762 11.0711 1.60375 8.66915 1.25264C6.12947 0.881817 3.53312 1.75069 1.72537 3.57789C1.26065 4.04732 0.853994 4.5737 0.516222 5.14175C0.464556 5.22925 0.372335 5.27786 0.277614 5.27786V5.27786Z" fill="#767676"/>
</svg>
