<svg width="10" height="11" viewBox="0 0 10 11" fill="none" xmlns="http://www.w3.org/2000/svg">
<path d="M5 10.5C7.75666 10.5 10 8.25666 10 5.5C10 2.74334 7.75669 0.5 5 0.5C2.24331 0.5 0 2.74334 0 5.5C0 8.25666 2.24334 10.5 5 10.5ZM5 1.16666C7.38999 1.16666 9.33334 3.10998 9.33334 5.5C9.33334 7.89002 7.39002 9.83334 5 9.83334C2.60998 9.83334 0.666656 7.89002 0.666656 5.5C0.666656 3.10998 2.61001 1.16666 5 1.16666Z" fill="#767676"/>
<path d="M6.45866 7.09333C6.52033 7.14332 6.59365 7.16667 6.66699 7.16667C6.76532 7.16667 6.86198 7.12334 6.92697 7.04167C7.04198 6.89833 7.01863 6.68833 6.87532 6.57333L5.33365 5.33999V2.83333C5.33365 2.64999 5.18366 2.5 5.00032 2.5C4.81698 2.5 4.66699 2.64999 4.66699 2.83333V5.50001C4.66699 5.60168 4.71367 5.69667 4.79199 5.75999L6.45866 7.09333Z" fill="#767676"/>
</svg>
