<svg width="16" height="14" viewBox="0 0 16 14" fill="none" xmlns="http://www.w3.org/2000/svg">
<path d="M8.25 13.1785C7.89069 13.1788 7.53886 13.0759 7.23638 12.8819C6.37826 12.3303 4.72792 11.1983 3.33192 9.81602C1.61876 8.11831 0.75 6.51945 0.75 5.0627C0.75 4.05046 1.04931 3.123 1.61568 2.3809C2.15275 1.67526 2.91142 1.17064 3.76981 0.948088C4.6282 0.725538 5.53648 0.797981 6.34874 1.15378C7.07574 1.46751 7.72414 1.99646 8.25 2.6984C8.77586 1.99474 9.42426 1.46579 10.1513 1.15378C10.9635 0.797981 11.8718 0.725538 12.7302 0.948088C13.5886 1.17064 14.3473 1.67526 14.8843 2.3809C15.4507 3.123 15.75 4.05046 15.75 5.0627C15.75 6.51945 14.8812 8.11762 13.1681 9.81465C11.7721 11.1969 10.1224 12.3289 9.26362 12.8806C8.96129 13.075 8.60945 13.1784 8.25 13.1785V13.1785ZM4.75435 1.6817C4.48286 1.68145 4.21254 1.71723 3.95046 1.7881C3.29267 1.96869 2.71215 2.35981 2.29771 2.90161C1.84668 3.49268 1.60812 4.24028 1.60812 5.06408C1.60812 6.2833 2.39108 7.67689 3.9357 9.20641C5.27437 10.5334 6.86945 11.6263 7.70011 12.1584C7.86413 12.2631 8.05469 12.3188 8.24931 12.3188C8.44394 12.3188 8.6345 12.2631 8.79851 12.1584C9.62918 11.6249 11.2229 10.532 12.5629 9.20641C14.1076 7.67689 14.8905 6.2833 14.8905 5.06408C14.8905 4.24028 14.6519 3.49405 14.2009 2.90161C13.7865 2.35981 13.206 1.96869 12.5482 1.7881C11.3753 1.46957 9.72735 1.80252 8.61865 3.69245C8.58086 3.75704 8.52682 3.81061 8.4619 3.84783C8.39699 3.88506 8.32346 3.90465 8.24863 3.90465C8.1738 3.90465 8.10027 3.88506 8.03535 3.84783C7.97044 3.81061 7.9164 3.75704 7.8786 3.69245C7.00744 2.20481 5.80057 1.6817 4.75435 1.6817V1.6817Z" fill="#424242"/>
</svg>
