<svg width="15" height="14" viewBox="0 0 15 14" fill="none" xmlns="http://www.w3.org/2000/svg">
<path d="M14.5702 6.82648C14.3315 6.82648 14.1405 7.01749 14.1405 7.25624V11.1654C14.1405 12.2286 13.2746 13.0913 12.2146 13.0913H2.78544C1.7222 13.0913 0.859508 12.2255 0.859508 11.1654V7.19257C0.859508 6.95382 0.668506 6.76282 0.429754 6.76282C0.191002 6.76282 0 6.95382 0 7.19257V11.1654C0 12.703 1.25106 13.9508 2.78544 13.9508H12.2146C13.7521 13.9508 15 12.6998 15 11.1654V7.25624C15 7.02067 14.809 6.82648 14.5702 6.82648Z" fill="#767676"/>
<path d="M7.19747 10.5382C7.28024 10.621 7.39166 10.6656 7.49989 10.6656C7.60813 10.6656 7.71954 10.6242 7.80231 10.5382L10.5336 7.80693C10.7024 7.63821 10.7024 7.36762 10.5336 7.1989C10.3649 7.03019 10.0943 7.03019 9.92561 7.1989L7.92965 9.19805V0.478826C7.92965 0.240074 7.73864 0.0490723 7.49989 0.0490723C7.26114 0.0490723 7.07014 0.240074 7.07014 0.478826V9.19805L5.07099 7.1989C4.90227 7.03019 4.63168 7.03019 4.46296 7.1989C4.29425 7.36762 4.29425 7.63821 4.46296 7.80693L7.19747 10.5382Z" fill="#767676"/>
</svg>
