<svg width="8" height="13" viewBox="0 0 8 13" fill="none" xmlns="http://www.w3.org/2000/svg">
<path d="M1.45508 0.548824C1.2059 0.299646 0.801908 0.299646 0.55273 0.548824C0.303552 0.798001 0.303552 1.202 0.55273 1.45118L1.45508 0.548824ZM6.50391 6.5L6.95508 6.95118C7.20426 6.702 7.20426 6.298 6.95508 6.04882L6.50391 6.5ZM0.55273 11.5488C0.303552 11.798 0.303552 12.202 0.55273 12.4512C0.801908 12.7004 1.2059 12.7004 1.45508 12.4512L0.55273 11.5488ZM0.55273 1.45118L6.05273 6.95118L6.95508 6.04882L1.45508 0.548824L0.55273 1.45118ZM6.05273 6.04882L0.55273 11.5488L1.45508 12.4512L6.95508 6.95118L6.05273 6.04882Z" fill="#3D3D3D"/>
</svg>
