<svg width="15" height="14" viewBox="0 0 15 14" fill="none" xmlns="http://www.w3.org/2000/svg">
<path d="M13.5952 3.75H13.5V3.15455C13.5 2.38015 12.8696 1.75 12.0952 1.75H6.8091L6.6973 1.52635C6.4575 1.04735 5.97605 0.75 5.4409 0.75H1.4048C0.63035 0.75 0 1.38015 0 2.15455V11.8455C0 12.6199 0.63035 13.25 1.4048 13.25H13.5953C14.3696 13.25 15 12.6199 15 11.8455V5.15455C15 4.38015 14.3696 3.75 13.5952 3.75ZM12.0952 2.75C12.3183 2.75 12.5 2.9314 12.5 3.15455V3.75H8.0591C7.9048 3.75 7.76615 3.6643 7.6973 3.52635L7.3091 2.75H12.0952ZM14 11.8455C14 12.0686 13.8183 12.25 13.5952 12.25H1.4048C1.18165 12.25 1 12.0686 1 11.8455V2.15455C1 1.9314 1.18165 1.75 1.4048 1.75H5.44095C5.59525 1.75 5.7339 1.8357 5.80275 1.97365L6.80275 3.97365C7.0425 4.45265 7.52395 4.75 8.0591 4.75H13.5953C13.8183 4.75 14 4.9314 14 5.15455V11.8455Z" fill="#767676"/>
</svg>
