<svg width="17" height="16" viewBox="0 0 17 16" fill="none" xmlns="http://www.w3.org/2000/svg">
<path d="M1 0.1C0.779086 0.1 0.6 0.279086 0.6 0.5V4.1C0.6 4.32091 0.779086 4.5 1 4.5C1.22091 4.5 1.4 4.32091 1.4 4.1V0.9H4.6C4.82091 0.9 5 0.720914 5 0.5C5 0.279086 4.82091 0.1 4.6 0.1H1ZM16 15.9C16.2209 15.9 16.4 15.7209 16.4 15.5V11.9C16.4 11.6791 16.2209 11.5 16 11.5C15.7791 11.5 15.6 11.6791 15.6 11.9V15.1H12.4C12.1791 15.1 12 15.2791 12 15.5C12 15.7209 12.1791 15.9 12.4 15.9H16ZM0.717157 0.782843L15.7172 15.7828L16.2828 15.2172L1.28284 0.217157L0.717157 0.782843Z" fill="#767676"/>
<path d="M0.6 15.5C0.6 15.7209 0.779086 15.9 1 15.9H4.6C4.82091 15.9 5 15.7209 5 15.5C5 15.2791 4.82091 15.1 4.6 15.1H1.4L1.4 11.9C1.4 11.6791 1.22091 11.5 1 11.5C0.779086 11.5 0.6 11.6791 0.6 11.9L0.6 15.5ZM16.4 0.499999C16.4 0.279086 16.2209 0.0999995 16 0.0999995L12.4 0.0999995C12.1791 0.0999995 12 0.279086 12 0.499999C12 0.720913 12.1791 0.899999 12.4 0.899999L15.6 0.899999V4.1C15.6 4.32091 15.7791 4.5 16 4.5C16.2209 4.5 16.4 4.32091 16.4 4.1V0.499999ZM1.28284 15.7828L16.2828 0.782842L15.7172 0.217157L0.717157 15.2172L1.28284 15.7828Z" fill="#767676"/>
</svg>
