<svg width="19" height="18" viewBox="0 0 19 18" fill="none" xmlns="http://www.w3.org/2000/svg">
<path d="M1.42313 5.78571C1.59363 5.78571 1.75714 5.71799 1.8777 5.59743C1.99826 5.47687 2.06599 5.31335 2.06599 5.14286V1.92857C2.06599 1.75808 2.13372 1.59456 2.25428 1.474C2.37484 1.35344 2.53835 1.28571 2.70884 1.28571H6.24456C6.41506 1.28571 6.57857 1.21799 6.69913 1.09743C6.81969 0.976867 6.88742 0.813354 6.88742 0.642857C6.88742 0.472361 6.81969 0.308848 6.69913 0.188288C6.57857 0.0677294 6.41506 0 6.24456 0H2.70884C2.19736 0 1.70682 0.203188 1.34514 0.564866C0.983462 0.926543 0.780273 1.41708 0.780273 1.92857V5.14286C0.780273 5.31335 0.848003 5.47687 0.968562 5.59743C1.08912 5.71799 1.25263 5.78571 1.42313 5.78571Z" fill="white"/>
<path d="M16.8514 0H13.3157C13.1452 0 12.9817 0.0677294 12.8611 0.188288C12.7406 0.308848 12.6729 0.472361 12.6729 0.642857C12.6729 0.813354 12.7406 0.976867 12.8611 1.09743C12.9817 1.21799 13.1452 1.28571 13.3157 1.28571H16.8514C17.0219 1.28571 17.1854 1.35344 17.306 1.474C17.4266 1.59456 17.4943 1.75808 17.4943 1.92857V5.14286C17.4943 5.31335 17.562 5.47687 17.6826 5.59743C17.8031 5.71799 17.9666 5.78571 18.1371 5.78571C18.3076 5.78571 18.4711 5.71799 18.5917 5.59743C18.7123 5.47687 18.78 5.31335 18.78 5.14286V1.92857C18.78 1.41708 18.5768 0.926543 18.2151 0.564866C17.8535 0.203188 17.3629 0 16.8514 0Z" fill="white"/>
<path d="M18.1371 12.2142C17.9666 12.2142 17.8031 12.282 17.6826 12.4025C17.562 12.5231 17.4943 12.6866 17.4943 12.8571V16.0714C17.4943 16.2419 17.4266 16.4054 17.306 16.5259C17.1854 16.6465 17.0219 16.7142 16.8514 16.7142H13.3157C13.1452 16.7142 12.9817 16.782 12.8611 16.9025C12.7406 17.0231 12.6729 17.1866 12.6729 17.3571C12.6729 17.5276 12.7406 17.6911 12.8611 17.8117C12.9817 17.9322 13.1452 17.9999 13.3157 17.9999H16.8514C17.3629 17.9999 17.8535 17.7968 18.2151 17.4351C18.5768 17.0734 18.78 16.5829 18.78 16.0714V12.8571C18.78 12.6866 18.7123 12.5231 18.5917 12.4025C18.4711 12.282 18.3076 12.2142 18.1371 12.2142Z" fill="white"/>
<path d="M6.24456 16.7142H2.70884C2.53835 16.7142 2.37484 16.6465 2.25428 16.5259C2.13372 16.4054 2.06599 16.2419 2.06599 16.0714V12.8571C2.06599 12.6866 1.99826 12.5231 1.8777 12.4025C1.75714 12.282 1.59363 12.2142 1.42313 12.2142C1.25263 12.2142 1.08912 12.282 0.968562 12.4025C0.848003 12.5231 0.780273 12.6866 0.780273 12.8571V16.0714C0.780273 16.5829 0.983462 17.0734 1.34514 17.4351C1.70682 17.7968 2.19736 17.9999 2.70884 17.9999H6.24456C6.41506 17.9999 6.57857 17.9322 6.69913 17.8117C6.81969 17.6911 6.88742 17.5276 6.88742 17.3571C6.88742 17.1866 6.81969 17.0231 6.69913 16.9025C6.57857 16.782 6.41506 16.7142 6.24456 16.7142Z" fill="white"/>
<path d="M18.1374 8.35718H1.42313C1.25263 8.35718 1.08912 8.42491 0.968562 8.54547C0.848003 8.66603 0.780273 8.82954 0.780273 9.00003C0.780273 9.17053 0.848003 9.33404 0.968562 9.4546C1.08912 9.57516 1.25263 9.64289 1.42313 9.64289H18.1374C18.3079 9.64289 18.4714 9.57516 18.592 9.4546C18.7125 9.33404 18.7803 9.17053 18.7803 9.00003C18.7803 8.82954 18.7125 8.66603 18.592 8.54547C18.4714 8.42491 18.3079 8.35718 18.1374 8.35718Z" fill="white"/>
</svg>
